<?xml version="1.0" standalone="no"?>
<!DOCTYPE svg PUBLIC "-//W3C//DTD SVG 20010904//EN"
 "http://www.w3.org/TR/2001/REC-SVG-20010904/DTD/svg10.dtd">
<svg version="1.0" xmlns="http://www.w3.org/2000/svg"
 width="296.000000pt" height="323.000000pt" viewBox="0 0 296.000000 323.000000"
 preserveAspectRatio="xMidYMid meet">
<g transform="translate(0.000000,323.000000) scale(0.050000,-0.050000)"
fill="#165487" stroke="none">
<path d="M2640 5740 c-766 -102 -1414 -476 -1864 -1076 -754 -1003 -704 -2532
112 -3434 l90 -100 1 217 c1 214 0 219 -59 286 -68 77 -200 330 -275 527 -283
739 -157 1634 325 2310 1063 1492 3364 1303 4188 -345 399 -798 335 -1861
-150 -2497 -67 -87 -68 -90 -68 -300 l0 -211 92 106 c1254 1457 628 3761
-1192 4384 -347 118 -873 177 -1200 133z"/>
<path d="M2800 4848 c-293 -127 -353 -512 -112 -724 392 -344 919 241 555 616
-131 135 -291 174 -443 108z"/>
<path d="M1688 4532 c-15 -40 22 -105 258 -455 330 -489 465 -763 554 -1127
l44 -180 208 -197 208 -197 195 184 c173 164 198 196 221 287 104 416 257 736
594 1242 253 380 285 455 200 467 -65 9 -879 -667 -1114 -925 l-94 -103 -176
171 c-147 144 -752 661 -954 817 -65 50 -128 57 -144 16z"/>
<path d="M1167 4200 c-108 -44 -141 -198 -61 -291 68 -79 199 -80 266 -3 128
149 -24 367 -205 294z"/>
<path d="M4625 4206 c-125 -24 -165 -209 -67 -308 147 -146 380 38 281 223
-20 38 -122 102 -153 96 -9 -1 -36 -6 -61 -11z"/>
<path d="M842 3552 c-144 -80 -127 -259 31 -325 195 -81 341 204 160 314 -73
45 -124 48 -191 11z"/>
<path d="M4927 3561 c-154 -65 -135 -295 28 -340 123 -34 229 46 229 171 0
125 -141 218 -257 169z"/>
<path d="M1174 2868 c-8 -8 -14 -385 -14 -838 l0 -824 195 -12 c592 -35 1167
-237 1480 -520 l45 -41 0 746 0 746 -72 98 c-174 237 -525 444 -938 552 -224
59 -670 118 -696 93z"/>
<path d="M4590 2866 c-629 -54 -1187 -296 -1465 -636 l-85 -104 0 -743 c0
-409 4 -743 9 -743 5 0 66 43 135 95 344 260 830 421 1381 458 l195 13 0 825
c0 855 -1 865 -77 846 -7 -2 -49 -7 -93 -11z"/>
<path d="M808 2798 c-167 -48 -171 -155 -18 -462 195 -391 189 -393 190 69 0
328 -5 395 -28 395 -16 0 -41 4 -55 8 -15 5 -55 0 -89 -10z"/>
<path d="M4949 2778 c-16 -26 -4 -758 13 -758 16 0 273 519 289 585 28 117
-241 272 -302 173z"/>
<path d="M1230 920 c121 -132 289 -240 371 -240 305 0 858 -189 1205 -413 161
-104 171 -105 287 -25 250 172 787 382 1109 434 247 40 303 67 488 234 l80 73
-262 -12 c-545 -25 -1040 -202 -1411 -504 l-134 -109 -157 127 c-341 275 -883
464 -1406 489 l-230 11 60 -65z"/>
</g>
</svg>
